# xmcd CD database file
#
# Track frame offsets:
#	151
#	12118
#	23375
#	34630
#	48933
#	66384
#	84935
#	97496
#	116917
#	130650
#
# Disc length: 1901 seconds
#
# Revision: 0
# Processed by: cddbd v1.5.2PL0 Copyright (c) Steve Scherf et al.
# Submitted via: CDex 1.51
#
DISCID=79076b0a
DTITLE=Tony Kerr - Nothing But Sweet Lies
DYEAR=1900
DGENRE=Country
TTITLE0=Fourteen Carat Mind
TTITLE1=Begging To You
TTITLE2=Nothing But Sweet Lies
TTITLE3=Swinging Doors
TTITLE4=On The Wings of A Dove
TTITLE5=The Prisoner's Song
TTITLE6=Tonight Carmen
TTITLE7=I Never Go Around Mirrors
TTITLE8=Irma Jackson
TTITLE9=I Can't Help It If I'm Still In Love With You
EXTD=
EXTT0=
EXTT1=
EXTT2=
EXTT3=
EXTT4=
EXTT5=
EXTT6=
EXTT7=
EXTT8=
EXTT9=
PLAYORDER=
